<svg width="45" height="45" viewBox="0 0 45 45" fill="none" xmlns="http://www.w3.org/2000/svg">
<rect width="45" height="45" rx="7" fill="url(#paint0_linear_88_14)"/>
<path d="M30.1424 12C30.1617 12 30.1804 12.0054 30.1975 12.0148C30.2064 12.0197 30.2154 12.0239 30.2247 12.0253C30.5328 12.0737 30.6839 12.27 30.6651 12.6005C30.6212 13.37 29.8539 14.0128 29.3353 14.0578C27.4655 14.2201 25.6123 14.5099 23.8034 15.0671C22.4423 15.4864 21.1608 16.0866 20.0209 17.0004C19.7316 17.2324 19.464 17.4954 19.1836 17.7405C18.8942 17.9936 18.5905 18.2357 18.2039 18.2585C17.9287 18.2747 17.65 18.2347 17.3735 18.2114C17.1537 18.193 16.9349 18.1609 16.7154 18.1367C16.5373 18.117 16.4729 18.0488 16.4276 17.8643C16.3931 17.7241 16.3549 17.5803 16.2913 17.4538C16.1222 17.1175 15.7886 16.9303 15.4832 16.9807C15.1384 17.0376 14.8614 17.3042 14.8087 17.6991C14.7496 18.1428 14.7114 18.5926 14.703 19.0407C14.6702 20.7816 14.6526 22.5229 14.6307 24.264C14.6299 24.325 14.631 24.3862 14.6335 24.4473C14.6442 24.7131 14.8464 24.8715 15.0847 24.7976C15.4397 24.6877 15.7925 24.5694 16.1469 24.4572C17.7469 23.9508 19.3723 23.5715 21.0251 23.3238C23.0334 23.0228 25.0502 22.9318 27.0751 23.0225C27.2868 23.032 27.4985 23.0438 27.7097 23.0622C28.0804 23.0944 28.2919 22.8748 28.2589 22.4796C28.2322 22.1594 28.1937 21.8402 28.1711 21.5197C28.0801 20.2281 28.0601 18.9391 28.3434 17.667C28.4775 17.0645 28.6953 16.5028 29.0525 16.0064C29.8906 14.8418 31.2068 14.9678 31.9427 15.4481C32.4782 15.7977 32.7855 16.3503 32.9788 16.9753C33.1736 17.605 33.1658 18.2511 33.0725 18.8978C32.8877 20.1797 32.4315 21.3654 31.9371 22.5368C31.8791 22.6743 31.8153 22.8098 31.7679 22.9514C31.664 23.2611 31.753 23.4226 32.0556 23.4715C32.326 23.5152 32.5983 23.5445 32.8692 23.5844C34.0325 23.7558 35.1751 24.032 36.3049 24.3708C36.601 24.4596 36.7168 24.6747 36.6468 25.0163C36.4829 25.8161 36.237 26.5877 35.9137 27.3296C35.6343 27.9706 35.2915 28.568 34.8361 29.0865C34.053 29.9782 33.0848 30.3639 31.9547 30.2831C31.4197 30.2448 30.9331 30.0266 30.498 29.6999C30.1957 29.4729 29.9205 29.2044 29.6337 28.9536C29.6334 28.9533 29.6331 28.953 29.6327 28.9528C29.5823 28.9084 29.5094 28.9088 29.462 28.9567C29.2303 29.1908 29.008 29.427 28.7681 29.6406C28.3935 29.9742 27.9676 30.2068 27.4788 30.2866C26.9215 30.3775 26.4126 30.2227 25.9321 29.9313C25.5212 29.6822 25.1701 29.3525 24.843 28.9914C24.8363 28.984 24.8296 28.9767 24.8229 28.9694C24.7794 28.9223 24.7103 28.9154 24.6595 28.9532C24.3459 29.1863 24.0426 29.43 23.7178 29.6344C22.9569 30.1132 22.1332 30.3661 21.2437 30.313C20.5615 30.2722 19.9499 30.0477 19.4699 29.4923C19.1487 29.1208 19.0402 28.6641 18.9945 28.1835C18.9261 27.4663 19.0185 26.7685 19.2579 26.0952C19.2923 25.9983 19.3345 25.9046 19.3798 25.8067C19.4245 25.7101 19.3526 25.5981 19.2526 25.6088C18.9107 25.6451 18.5932 25.7273 18.3146 25.9488C18.0219 26.1814 17.9174 26.521 17.9033 26.8922C17.8849 27.3789 17.8966 27.867 17.8731 28.3533C17.8299 29.245 17.4825 29.979 16.7717 30.4562C15.4978 31.3115 13.4679 31.2487 12.3658 29.6111C12.2242 29.4008 12.1205 29.1612 12.0028 28.9223C11.9727 28.8614 11.9057 28.8333 11.8455 28.8572C11.3342 29.0598 10.8059 29.2714 10.2758 29.4777C9.41971 29.8107 8.56438 30.1461 7.70419 30.4666C7.39623 30.5813 7.07543 30.6527 6.7424 30.608C6.52995 30.5795 6.33994 30.4946 6.18235 30.3441C6.04788 30.2156 5.91589 30.0791 5.8067 29.9264C5.5949 29.6304 5.39847 29.3217 5.19894 29.0157C5.15128 28.9427 5.11242 28.8621 5.07647 28.7813C4.92992 28.4523 4.98927 28.2465 5.2956 28.0852C5.46061 27.9983 5.63777 27.936 5.81264 27.8728C7.88485 27.1232 9.95756 26.3751 12.0308 25.6286C12.1029 25.6026 12.1308 25.5686 12.1323 25.4821C12.1727 23.0976 12.2112 20.713 12.2618 18.3287C12.2828 17.3381 12.5394 16.4249 13.1535 15.6613C14.2306 14.3221 15.9995 14.1116 17.3649 15.1664C17.6347 15.3749 17.8722 15.6315 18.1293 15.8814C18.1761 15.9268 18.2468 15.9285 18.2956 15.8855C18.3952 15.7978 18.5071 15.6988 18.6211 15.6027C19.9323 14.4966 21.4107 13.7378 22.9915 13.1937C24.2029 12.7768 25.4413 12.4814 26.7031 12.3146C27.6046 12.1953 28.5114 12.1221 29.4158 12.0272C29.4292 12.0258 29.4421 12.0199 29.455 12.0133C29.4722 12.0046 29.4909 12 29.5099 12C29.7207 12 29.9316 12 30.1424 12ZM23.7906 26.435C23.7889 26.1375 23.7402 25.7466 23.55 25.3911C23.4419 25.1891 23.2939 25.0462 23.0626 25.0263C22.2725 24.9584 21.507 25.1114 20.75 25.327C20.5733 25.3774 20.4652 25.5264 20.4191 25.7191C20.3283 26.0991 20.3541 26.4795 20.4226 26.8585C20.585 27.7563 21.0244 28.3797 21.8941 28.6005C22.6307 28.7875 23.2198 28.5056 23.5464 27.7762C23.7213 27.3857 23.791 26.9701 23.7906 26.435ZM26.1612 24.734C26.1581 24.734 26.1549 24.734 26.1518 24.7342C25.8936 24.7503 25.6352 24.7625 25.3774 24.7838C25.1242 24.8047 25.0155 24.9215 24.9883 25.1916C24.9822 25.2521 24.9775 25.3179 24.9929 25.3747C25.0723 25.6678 25.1328 25.971 25.2478 26.2478C25.4856 26.8203 25.7924 27.3501 26.2411 27.7671C26.4858 27.9945 26.7764 28.0955 27.0981 28.0644C27.7908 27.9973 28.2851 27.6112 28.5742 26.9421C28.8666 26.2651 28.6692 25.593 28.0805 25.194C27.9697 25.1188 27.8494 25.0562 27.7275 25.004C27.2248 24.7888 26.6966 24.7411 26.1612 24.734ZM31.8646 25.1206C31.8614 25.1205 31.8583 25.1205 31.8551 25.1206C31.5629 25.1295 31.2655 25.1442 31.0003 25.2946C30.8826 25.3614 30.7544 25.468 30.7006 25.5914C30.5326 25.9768 30.4937 26.3881 30.5867 26.8081C30.709 27.3604 31.0322 27.7593 31.4309 28.1074C31.7775 28.4101 32.1634 28.484 32.5852 28.3633C33.2303 28.1788 33.6058 27.6926 33.8343 27.0508C33.9242 26.7984 33.9546 26.5388 33.8866 26.273C33.787 25.8839 33.5308 25.6414 33.2138 25.461C32.7934 25.2217 32.3377 25.1368 31.8646 25.1206ZM15.1193 28.6433C15.1255 28.6434 15.1316 28.643 15.1377 28.6422C15.1677 28.6386 15.2195 28.6346 15.2695 28.6221C15.7532 28.5019 16.1763 27.8614 16.1178 27.3333C16.0933 27.1111 16.029 26.9399 15.7263 27.0109C15.2922 27.1128 14.8852 27.2605 14.5658 27.6076C14.3468 27.8456 14.3495 28.1629 14.5658 28.4049C14.7088 28.565 14.8859 28.6406 15.1193 28.6433Z" fill="#0F244A"/>
<path d="M40.2857 28.3751C40.2604 28.4573 40.233 28.5388 40.2101 28.6218C39.9686 29.4938 39.1687 30.0912 38.3547 30.0067C37.4414 29.9119 36.7657 29.2134 36.6765 28.2719C36.5752 27.2024 37.267 26.2849 38.2837 26.1405C39.2055 26.0095 40.0995 26.7378 40.2606 27.7499C40.2638 27.77 40.2771 27.7881 40.2857 27.8072C40.2857 27.9965 40.2857 28.1858 40.2857 28.3751Z" fill="#0F244A"/>
<defs>
<linearGradient id="paint0_linear_88_14" x1="0" y1="22.5" x2="45" y2="22.5" gradientUnits="userSpaceOnUse">
<stop stop-color="#F5F5F5"/>
<stop offset="1" stop-color="#C0E6FD"/>
</linearGradient>
</defs>
</svg>
