<svg width="46" height="46" viewBox="0 0 46 46" fill="none" xmlns="http://www.w3.org/2000/svg">
<circle cx="23" cy="23" r="23" fill="#A5EB89"/>
<path d="M30 32V30C30 28.9391 29.5786 27.9217 28.8284 27.1716C28.0783 26.4214 27.0609 26 26 26H20C18.9391 26 17.9217 26.4214 17.1716 27.1716C16.4214 27.9217 16 28.9391 16 30V32M27 18C27 20.2091 25.2091 22 23 22C20.7909 22 19 20.2091 19 18C19 15.7909 20.7909 14 23 14C25.2091 14 27 15.7909 27 18Z" stroke="#F5F5F5" stroke-width="2" stroke-linecap="round" stroke-linejoin="round"/>
</svg>
