<?xml version="1.0" encoding="UTF-8"?>
<svg id="Camada_2" data-name="Camada 2" xmlns="http://www.w3.org/2000/svg" viewBox="0 0 3542.7 6298.13">
  <defs>
    <style>
      .cls-1 {
        fill: #1e1e1e;
      }
    </style>
  </defs>
  <g id="Camada_1-2" data-name="Camada 1">
    <path class="cls-1" d="M0,0v6298.13h3542.7V0H0ZM3126.39,3835.66h-166.52v505.92h153.4v625.05h-512.57v-160.44h-255.46v663.57h-1109.38v-560.32h-225.3v619.49H416.31v-887.93h453.86v-289.09h457.12v-702.09h-163.26v247.79s-35.92,0-35.92,0v51.62h-506.1v-753.71h267.74v-578.19h-437.53V851.8h226.23v991.81h297.13v-320.07h228.56v-433.64h84.89v-300.05h815.36v598.84h68.57v-154.87h78.36v-464.62h339.58v464.62h65.3v72.27h319.99v536.89h-319.99v237.47h199.17v443.97h-163.26v299.42h-199.17v671.11h146.93v134.22h225.3v-278.77h261.21v485.27Z"/>
  </g>
</svg>