<?xml version="1.0" encoding="UTF-8"?>
<svg id="Camada_3" data-name="Camada 3" xmlns="http://www.w3.org/2000/svg" xmlns:xlink="http://www.w3.org/1999/xlink" viewBox="0 0 1920 1080">
  <defs>
    <style>
      .cls-1 {
        fill: url(#Gradiente_sem_nome_122-10);
      }

      .cls-2 {
        fill: url(#Gradiente_sem_nome_122);
      }

      .cls-3 {
        fill: url(#Gradiente_sem_nome_122-5);
      }

      .cls-4 {
        fill: url(#Gradiente_sem_nome_122-4);
      }

      .cls-5 {
        fill: url(#Gradiente_sem_nome_122-3);
      }

      .cls-6 {
        fill: url(#Gradiente_sem_nome_122-2);
      }

      .cls-7 {
        fill: url(#Gradiente_sem_nome_122-9);
      }

      .cls-8 {
        fill: url(#Gradiente_sem_nome_122-8);
      }

      .cls-9 {
        fill: url(#Gradiente_sem_nome_122-7);
      }

      .cls-10 {
        fill: url(#Gradiente_sem_nome_122-6);
      }

      .cls-11 {
        fill: #191919;
      }
    </style>
    <linearGradient id="Gradiente_sem_nome_122" data-name="Gradiente sem nome 122" x1="677.65" y1="911.95" x2="715.29" y2="911.95" gradientUnits="userSpaceOnUse">
      <stop offset="0" stop-color="#c5ddff"/>
      <stop offset="1" stop-color="#f5f5f5"/>
    </linearGradient>
    <linearGradient id="Gradiente_sem_nome_122-2" data-name="Gradiente sem nome 122" x1="602.35" y1="968.42" x2="677.65" y2="968.42" xlink:href="#Gradiente_sem_nome_122"/>
    <linearGradient id="Gradiente_sem_nome_122-3" data-name="Gradiente sem nome 122" x1="1242.35" y1="987.25" x2="1280" y2="987.25" xlink:href="#Gradiente_sem_nome_122"/>
    <linearGradient id="Gradiente_sem_nome_122-4" data-name="Gradiente sem nome 122" x1="1807.06" y1="761.37" x2="1844.71" y2="761.37" xlink:href="#Gradiente_sem_nome_122"/>
    <linearGradient id="Gradiente_sem_nome_122-5" data-name="Gradiente sem nome 122" x1="0" y1="522.07" x2="1920" y2="522.07" xlink:href="#Gradiente_sem_nome_122"/>
    <linearGradient id="Gradiente_sem_nome_122-6" data-name="Gradiente sem nome 122" x1="1844.71" y1="799.01" x2="1882.35" y2="799.01" xlink:href="#Gradiente_sem_nome_122"/>
    <linearGradient id="Gradiente_sem_nome_122-7" data-name="Gradiente sem nome 122" x1="1731.76" y1="799.01" x2="1807.06" y2="799.01" xlink:href="#Gradiente_sem_nome_122"/>
    <linearGradient id="Gradiente_sem_nome_122-8" data-name="Gradiente sem nome 122" x1="1091.76" y1="987.25" x2="1129.41" y2="987.25" xlink:href="#Gradiente_sem_nome_122"/>
    <linearGradient id="Gradiente_sem_nome_122-9" data-name="Gradiente sem nome 122" x1="1167.06" y1="949.6" x2="1204.71" y2="949.6" xlink:href="#Gradiente_sem_nome_122"/>
    <linearGradient id="Gradiente_sem_nome_122-10" data-name="Gradiente sem nome 122" x1="1355.29" y1="987.25" x2="1392.94" y2="987.25" xlink:href="#Gradiente_sem_nome_122"/>
  </defs>
  <rect class="cls-11" width="1920" height="1080"/>
  <g>
    <rect class="cls-2" x="677.65" y="893.13" width="37.65" height="37.65"/>
    <polygon class="cls-6" points="677.65 1006.07 640 1006.07 640 968.42 602.35 968.42 602.35 930.78 640 930.78 677.65 930.78 677.65 968.42 677.65 1006.07"/>
    <rect class="cls-5" x="1242.35" y="968.42" width="37.65" height="37.65"/>
    <rect class="cls-4" x="1807.06" y="742.54" width="37.65" height="37.65"/>
    <polygon class="cls-3" points="1920 .42 1920 742.54 1882.35 742.54 1882.35 704.89 1844.71 704.89 1807.06 704.89 1769.41 704.89 1769.41 667.25 1731.76 667.25 1731.76 704.89 1731.76 742.54 1694.12 742.54 1694.12 704.89 1656.47 704.89 1656.47 742.54 1656.47 780.19 1618.82 780.19 1581.18 780.19 1581.18 742.54 1543.53 742.54 1543.53 780.19 1581.18 780.19 1581.18 817.84 1581.18 855.48 1618.82 855.48 1618.82 817.84 1656.47 817.84 1694.12 817.84 1731.76 817.84 1731.76 855.48 1694.12 855.48 1656.47 855.48 1656.47 893.13 1618.82 893.13 1581.18 893.13 1581.18 930.78 1543.53 930.78 1543.53 893.13 1505.88 893.13 1505.88 930.78 1505.88 968.42 1468.24 968.42 1430.59 968.42 1392.94 968.42 1392.94 930.78 1430.59 930.78 1468.24 930.78 1468.24 893.13 1430.59 893.13 1392.94 893.13 1355.29 893.13 1355.29 930.78 1317.65 930.78 1317.65 968.42 1280 968.42 1280 930.78 1242.35 930.78 1204.71 930.78 1204.71 893.13 1167.06 893.13 1167.06 930.78 1129.41 930.78 1129.41 893.13 1091.76 893.13 1091.76 930.78 1091.76 968.42 1054.12 968.42 1054.12 1006.07 1016.47 1006.07 978.82 1006.07 941.18 1006.07 941.18 1043.72 903.53 1043.72 903.53 1006.07 865.88 1006.07 828.24 1006.07 828.24 968.42 790.59 968.42 790.59 1006.07 752.94 1006.07 752.94 968.42 752.94 930.78 752.94 893.13 790.59 893.13 790.59 855.48 828.24 855.48 828.24 817.84 790.59 817.84 790.59 855.48 752.94 855.48 715.29 855.48 677.65 855.48 640 855.48 602.35 855.48 564.71 855.48 564.71 893.13 527.06 893.13 489.41 893.13 489.41 855.48 489.41 817.84 451.76 817.84 451.76 855.48 414.12 855.48 414.12 893.13 376.47 893.13 338.82 893.13 338.82 930.78 301.18 930.78 263.53 930.78 225.88 930.78 225.88 968.42 188.24 968.42 150.59 968.42 150.59 930.78 112.94 930.78 112.94 893.13 75.29 893.13 75.29 855.48 37.65 855.48 37.65 893.13 0 893.13 0 .42 1920 .42"/>
    <rect class="cls-10" x="1844.71" y="780.19" width="37.65" height="37.65"/>
    <polygon class="cls-9" points="1769.41 780.19 1807.06 780.19 1807.06 817.84 1769.41 817.84 1731.76 817.84 1731.76 780.19 1769.41 780.19"/>
    <rect class="cls-8" x="1091.76" y="968.42" width="37.65" height="37.65"/>
    <rect class="cls-7" x="1167.06" y="930.78" width="37.65" height="37.65"/>
    <rect class="cls-1" x="1355.29" y="968.42" width="37.65" height="37.65"/>
  </g>
</svg>