<svg width="14" height="17" viewBox="0 0 14 17" fill="none" xmlns="http://www.w3.org/2000/svg">
<path d="M5.5 0.5H4.5C3.96957 0.5 3.46086 0.687301 3.08579 1.0207C2.71071 1.3541 2.5 1.80628 2.5 2.27778V6.72222C2.5 7.19372 2.28929 7.6459 1.91421 7.9793C1.53914 8.3127 1.03043 8.5 0.5 8.5C1.03043 8.5 1.53914 8.6873 1.91421 9.0207C2.28929 9.3541 2.5 9.80628 2.5 10.2778V14.7222C2.5 15.7 3.4 16.5 4.5 16.5H5.5M8.5 16.5H9.5C10.0304 16.5 10.5391 16.3127 10.9142 15.9793C11.2893 15.6459 11.5 15.1937 11.5 14.7222V10.2778C11.5 9.3 12.4 8.5 13.5 8.5C12.9696 8.5 12.4609 8.3127 12.0858 7.9793C11.7107 7.6459 11.5 7.19372 11.5 6.72222V2.27778C11.5 1.80628 11.2893 1.3541 10.9142 1.0207C10.5391 0.687301 10.0304 0.5 9.5 0.5H8.5" stroke="#C0E6FD" stroke-linecap="round" stroke-linejoin="round"/>
</svg>
