<svg width="12" height="17" viewBox="0 0 12 17" fill="none" xmlns="http://www.w3.org/2000/svg">
<path d="M6 0.5H3.25C2.52065 0.5 1.82118 0.780952 1.30546 1.28105C0.789731 1.78115 0.5 2.45942 0.5 3.16667C0.5 3.87391 0.789731 4.55219 1.30546 5.05228C1.82118 5.55238 2.52065 5.83333 3.25 5.83333M6 0.5V5.83333M6 0.5L8.75 0.5C9.11113 0.5 9.46873 0.568975 9.80238 0.702988C10.136 0.837 10.4392 1.03343 10.6945 1.28105C10.9499 1.52867 11.1525 1.82264 11.2907 2.14618C11.4289 2.46971 11.5 2.81648 11.5 3.16667C11.5 3.51686 11.4289 3.86362 11.2907 4.18716C11.1525 4.51069 10.9499 4.80466 10.6945 5.05228C10.4392 5.29991 10.136 5.49633 9.80238 5.63035C9.46873 5.76436 9.11113 5.83333 8.75 5.83333M6 5.83333H3.25M6 5.83333H8.75M6 5.83333V11.1667M3.25 5.83333C2.52065 5.83333 1.82118 6.11429 1.30546 6.61438C0.789731 7.11448 0.5 7.79276 0.5 8.5C0.5 9.20724 0.789731 9.88552 1.30546 10.3856C1.82118 10.8857 2.52065 11.1667 3.25 11.1667M8.75 5.83333C8.38886 5.83333 8.03127 5.90231 7.69762 6.03632C7.36398 6.17033 7.06082 6.36676 6.80546 6.61438C6.5501 6.86201 6.34753 7.15598 6.20933 7.47951C6.07113 7.80305 6 8.14981 6 8.5C6 8.85019 6.07113 9.19695 6.20933 9.52049C6.34753 9.84402 6.5501 10.138 6.80546 10.3856C7.06082 10.6332 7.36398 10.8297 7.69762 10.9637C8.03127 11.0977 8.38886 11.1667 8.75 11.1667C9.11113 11.1667 9.46873 11.0977 9.80238 10.9637C10.136 10.8297 10.4392 10.6332 10.6945 10.3856C10.9499 10.138 11.1525 9.84402 11.2907 9.52049C11.4289 9.19695 11.5 8.85019 11.5 8.5C11.5 8.14981 11.4289 7.80305 11.2907 7.47951C11.1525 7.15598 10.9499 6.86201 10.6945 6.61438C10.4392 6.36676 10.136 6.17033 9.80238 6.03632C9.46873 5.90231 9.11113 5.83333 8.75 5.83333ZM3.25 11.1667C2.52065 11.1667 1.82118 11.4476 1.30546 11.9477C0.789731 12.4478 0.5 13.1261 0.5 13.8333C0.5 14.5406 0.789731 15.2189 1.30546 15.719C1.82118 16.219 2.52065 16.5 3.25 16.5C3.97935 16.5 4.67882 16.219 5.19454 15.719C5.71027 15.2189 6 14.5406 6 13.8333V11.1667M3.25 11.1667H6" stroke="#C0E6FD" stroke-linecap="round" stroke-linejoin="round"/>
</svg>
