<svg width="18" height="17" viewBox="0 0 18 17" fill="none" xmlns="http://www.w3.org/2000/svg">
<path d="M14.3876 9.48611L13.1942 3.87061C13.1617 3.71783 13.0835 3.57697 12.9688 3.46465C12.854 3.35233 12.7076 3.27323 12.5466 3.23668L1.57196 0.522879C1.42738 0.489979 1.27624 0.492601 1.13304 0.530493C0.989849 0.568386 0.859404 0.640277 0.754224 0.73927C0.649045 0.838263 0.57266 0.961034 0.532399 1.0958C0.492138 1.23058 0.489352 1.37282 0.524309 1.5089L3.40773 11.838C3.44656 11.9895 3.5306 12.1273 3.64994 12.2353C3.76928 12.3433 3.91895 12.4169 4.08127 12.4474L10.0477 13.5707M0.760398 0.745081L7.08447 6.69715M12.3974 16.2608C12.2346 16.414 12.0139 16.5 11.7837 16.5C11.5535 16.5 11.3328 16.414 11.17 16.2608L9.79343 14.9652C9.6307 14.812 9.53929 14.6042 9.53929 14.3876C9.53929 14.171 9.6307 13.9633 9.79343 13.8101L14.6419 9.24675C14.8047 9.0936 15.0254 9.00757 15.2556 9.00757C15.4858 9.00757 15.7065 9.0936 15.8693 9.24675L17.2459 10.5424C17.4086 10.6956 17.5 10.9033 17.5 11.1199C17.5 11.3366 17.4086 11.5443 17.2459 11.6975L12.3974 16.2608ZM10.0477 7.85227C10.0477 8.75462 9.27053 9.48611 8.31179 9.48611C7.35305 9.48611 6.57584 8.75462 6.57584 7.85227C6.57584 6.94993 7.35305 6.21844 8.31179 6.21844C9.27053 6.21844 10.0477 6.94993 10.0477 7.85227Z" stroke="#C0E6FD" stroke-linecap="round" stroke-linejoin="round"/>
</svg>
