<svg width="26" height="17" viewBox="0 0 26 17" fill="none" xmlns="http://www.w3.org/2000/svg">
<path d="M11.5 0.500061H10.5C9.96956 0.500061 9.46085 0.687362 9.08578 1.02076C8.71071 1.35416 8.5 1.80634 8.5 2.27784V6.72228C8.5 7.19378 8.28928 7.64596 7.91421 7.97936C7.53914 8.31276 7.03043 8.50006 6.5 8.50006C7.03043 8.50006 7.53914 8.68736 7.91421 9.02076C8.28928 9.35416 8.5 9.80634 8.5 10.2778V14.7223C8.5 15.7001 9.39999 16.5001 10.5 16.5001H11.5M14.4999 16.5001H15.4999C16.0304 16.5001 16.5391 16.3128 16.9141 15.9794C17.2892 15.646 17.4999 15.1938 17.4999 14.7223V10.2778C17.4999 9.30006 18.3999 8.50006 19.4999 8.50006C18.9695 8.50006 18.4608 8.31275 18.0857 7.97936C17.7106 7.64596 17.4999 7.19377 17.4999 6.72228V2.27783C17.4999 1.80634 17.2892 1.35415 16.9141 1.02076C16.5391 0.687358 16.0304 0.500057 15.4999 0.500057H14.4999" stroke="#C0E6FD" stroke-linecap="round" stroke-linejoin="round"/>
<path d="M4.49999 16.5001C4.49999 16.5001 0.5 13.8334 0.5 8.50006C0.5 3.16673 4.49999 0.500059 4.49999 0.500059M21.5 0.500053C21.5 0.500053 25.5 3.16672 25.5 8.50005C25.5 13.8334 21.5 16.5001 21.5 16.5001" stroke="#C0E6FD" stroke-linecap="round" stroke-linejoin="round"/>
</svg>
