<svg width="17" height="17" viewBox="0 0 17 17" fill="none" xmlns="http://www.w3.org/2000/svg">
<path d="M16.5 11.1667L13.7569 8.42356C13.4235 8.09027 12.9714 7.90305 12.5 7.90305C12.0286 7.90305 11.5765 8.09027 11.2431 8.42356L3.16667 16.5M2.27778 0.5H14.7222C15.7041 0.5 16.5 1.29594 16.5 2.27778V14.7222C16.5 15.7041 15.7041 16.5 14.7222 16.5H2.27778C1.29594 16.5 0.5 15.7041 0.5 14.7222V2.27778C0.5 1.29594 1.29594 0.5 2.27778 0.5ZM7.61111 5.83333C7.61111 6.81517 6.81517 7.61111 5.83333 7.61111C4.85149 7.61111 4.05556 6.81517 4.05556 5.83333C4.05556 4.85149 4.85149 4.05556 5.83333 4.05556C6.81517 4.05556 7.61111 4.85149 7.61111 5.83333Z" stroke="#C0E6FD" stroke-linecap="round" stroke-linejoin="round"/>
</svg>
